# xmcd
#
# Track frame offsets:
# 150
# 15604
# 29372
# 44722
# 60892
# 74753
# 87970
# 100819
# 112972
# 123956
# 135660
# 146999
# 161935
# 173636
# 191671
# 206658
# 218840
# 229941
# 243324
# 256944
# 273246
#
# Disc length: 3866 seconds
#
#
# Revision: 0
# Processed by: cddbd v1.4PL0 Copyright (c) Steve Scherf et al.
# Submitted via: FreeRIP 2.20 
#
DISCID=360f1815
DTITLE=Varios - 100 Exitos Norteños
DYEAR=1900
DGENRE=Folklore
TTITLE0=Intro
TTITLE1=Morir de Amor
TTITLE2=Amor Maldito
TTITLE3=Hasta la miel Amarga
TTITLE4=El maquinista
TTITLE5=El cariño que perdi
TTITLE6=Un cariño como tu 
TTITLE7=Los Tigres del Norte - Ni parientes somos
TTITLE8=Margarita
TTITLE9=Abrazando un poste
TTITLE10=Quedate la cobija
TTITLE11=Los tucanes de Tijuana - Secuestro de Amor
TTITLE12=Agustin Jaime
TTITLE13=Golpe traidor
TTITLE14=Nuevo Cariñito
TTITLE15=Tragos Amargos
TTITLE16=Dos Coronas
TTITLE17=Amores Fingidos
TTITLE18=Busca Otro Amor
TTITLE19=Y por esa calle vive
TTITLE20=Un dia con otro
EXTD=
EXTT0=
EXTT1=
EXTT2=
EXTT3=
EXTT4=
EXTT5=
EXTT6=
EXTT7=
EXTT8=
EXTT9=
EXTT10=
EXTT11=
EXTT12=
EXTT13=
EXTT14=
EXTT15=
EXTT16=
EXTT17=
EXTT18=
EXTT19=
EXTT20=
PLAYORDER=
